<svg height="512pt" viewBox="0 0 512 512" width="512pt" xmlns="http://www.w3.org/2000/svg" xmlns:xlink="http://www.w3.org/1999/xlink"><linearGradient id="a" gradientTransform="matrix(1 0 0 -1 0 -22278)" gradientUnits="userSpaceOnUse" x1="0" x2="512" y1="-22534" y2="-22534"><stop offset="0" stop-color="#00f38d"/><stop offset="1" stop-color="#009eff"/></linearGradient><path d="m512 256c0 141.386719-114.613281 256-256 256s-256-114.613281-256-256 114.613281-256 256-256 256 114.613281 256 256zm0 0" fill="url(#a)"/><g fill="#fff"><path d="m256 455.878906c-110.28125 0-200-89.722656-200-200 0-110.28125 89.71875-200 200-200s200 89.71875 200 200c0 110.277344-89.71875 200-200 200zm0-370c-93.738281 0-170 76.261719-170 170 0 93.738282 76.261719 170 170 170s170-76.261718 170-170c0-93.738281-76.261719-170-170-170zm0 0"/><path d="m257.882812 374.351562c-36.003906 0-68.121093-14.753906-92.875-42.675781-18.324218-20.664062-26.207031-41.457031-26.535156-42.332031l28.105469-10.492188c.046875.125 6.621094 17.121094 21.523437 33.648438 19.0625 21.136719 42.539063 31.851562 69.78125 31.851562 27.054688 0 49.804688-10.59375 67.625-31.496093 13.964844-16.378907 19.652344-33.253907 19.710938-33.421875l28.527344 9.28125c-.285156.878906-7.179688 21.824218-24.59375 42.636718-23.535156 28.128907-55.09375 43-91.269532 43zm0 0"/><path d="m212.101562 196.398438c0 13.851562-11.230468 25.082031-25.085937 25.082031-13.851563 0-25.082031-11.230469-25.082031-25.082031 0-13.855469 11.230468-25.085938 25.082031-25.085938 13.855469 0 25.085937 11.230469 25.085937 25.085938zm0 0"/><path d="m350.066406 196.398438c0 13.851562-11.230468 25.082031-25.082031 25.082031-13.855469 0-25.085937-11.230469-25.085937-25.082031 0-13.855469 11.230468-25.085938 25.085937-25.085938 13.851563 0 25.082031 11.230469 25.082031 25.085938zm0 0"/></g></svg>